<mxfile host="app.diagrams.net" agent="Mozilla/5.0 (Windows NT 10.0; Win64; x64) AppleWebKit/537.36 (KHTML, like Gecko) Chrome/126.0.0.0 YaBrowser/24.7.0.0 Safari/537.36" version="24.7.17">
  <diagram name="Страница — 1" id="GiDRmRgd0x45pkY0fpgc">
    <mxGraphModel dx="824" dy="791" grid="1" gridSize="10" guides="1" tooltips="1" connect="1" arrows="1" fold="1" page="1" pageScale="1" pageWidth="900" pageHeight="1600" math="0" shadow="0">
      <root>
        <mxCell id="0" />
        <mxCell id="1" parent="0" />
        <mxCell id="TMLp2XeuXttRBRyLWtrB-34" style="edgeStyle=orthogonalEdgeStyle;rounded=0;orthogonalLoop=1;jettySize=auto;html=1;entryX=0;entryY=0.5;entryDx=0;entryDy=0;endArrow=none;endFill=0;startArrow=classicThin;startFill=1;" edge="1" parent="1" source="TMLp2XeuXttRBRyLWtrB-6" target="TMLp2XeuXttRBRyLWtrB-13">
          <mxGeometry relative="1" as="geometry">
            <Array as="points">
              <mxPoint x="425" y="190" />
              <mxPoint x="425" y="230" />
              <mxPoint x="530" y="230" />
            </Array>
          </mxGeometry>
        </mxCell>
        <mxCell id="TMLp2XeuXttRBRyLWtrB-6" value="&lt;p style=&quot;margin:0px;margin-top:4px;text-align:center;&quot;&gt;&lt;b&gt;Читатель&lt;/b&gt;&lt;/p&gt;&lt;hr size=&quot;1&quot; style=&quot;border-style:solid;&quot;&gt;&lt;p style=&quot;margin:0px;margin-left:4px;&quot;&gt;# id&lt;/p&gt;&lt;p style=&quot;margin:0px;margin-left:4px;&quot;&gt;- name&lt;/p&gt;&lt;p style=&quot;margin:0px;margin-left:4px;&quot;&gt;- phone&lt;/p&gt;&lt;p style=&quot;margin:0px;margin-left:4px;&quot;&gt;- address&lt;/p&gt;&lt;p style=&quot;margin:0px;margin-left:4px;&quot;&gt;- email&lt;/p&gt;&lt;hr size=&quot;1&quot; style=&quot;border-style:solid;&quot;&gt;&lt;p style=&quot;margin:0px;margin-left:4px;&quot;&gt;+ register(): void&lt;/p&gt;&lt;p style=&quot;margin:0px;margin-left:4px;&quot;&gt;+ updateInfo(): void&lt;/p&gt;&lt;p style=&quot;margin:0px;margin-left:4px;&quot;&gt;+borrowBook(): void&lt;/p&gt;&lt;p style=&quot;margin:0px;margin-left:4px;&quot;&gt;+returnBook(): void&lt;/p&gt;" style="verticalAlign=top;align=left;overflow=fill;html=1;whiteSpace=wrap;" vertex="1" parent="1">
          <mxGeometry x="160" y="30" width="160" height="180" as="geometry" />
        </mxCell>
        <mxCell id="TMLp2XeuXttRBRyLWtrB-18" style="edgeStyle=orthogonalEdgeStyle;rounded=0;orthogonalLoop=1;jettySize=auto;html=1;entryX=0.5;entryY=1;entryDx=0;entryDy=0;endArrow=block;endFill=0;strokeWidth=1;endSize=14;" edge="1" parent="1" source="TMLp2XeuXttRBRyLWtrB-7" target="TMLp2XeuXttRBRyLWtrB-6">
          <mxGeometry relative="1" as="geometry" />
        </mxCell>
        <mxCell id="TMLp2XeuXttRBRyLWtrB-29" style="edgeStyle=orthogonalEdgeStyle;rounded=0;orthogonalLoop=1;jettySize=auto;html=1;exitX=1;exitY=0.5;exitDx=0;exitDy=0;entryX=0;entryY=0.5;entryDx=0;entryDy=0;endArrow=classicThin;endFill=1;" edge="1" parent="1" source="TMLp2XeuXttRBRyLWtrB-7" target="TMLp2XeuXttRBRyLWtrB-10">
          <mxGeometry relative="1" as="geometry" />
        </mxCell>
        <mxCell id="TMLp2XeuXttRBRyLWtrB-7" value="&lt;p style=&quot;margin:0px;margin-top:4px;text-align:center;&quot;&gt;&lt;b&gt;Заемщик&lt;/b&gt;&lt;/p&gt;&lt;hr size=&quot;1&quot; style=&quot;border-style:solid;&quot;&gt;&lt;p style=&quot;margin:0px;margin-left:4px;&quot;&gt;# id&lt;/p&gt;&lt;p style=&quot;margin:0px;margin-left:4px;&quot;&gt;# borrowedBooks: List[Book]&lt;/p&gt;&lt;p style=&quot;margin:0px;margin-left:4px;&quot;&gt;# fines: List[Fine]&lt;/p&gt;&lt;hr size=&quot;1&quot; style=&quot;border-style:solid;&quot;&gt;&lt;p style=&quot;margin:0px;margin-left:4px;&quot;&gt;+ borrowBook(): void&amp;nbsp;&lt;/p&gt;&lt;p style=&quot;margin:0px;margin-left:4px;&quot;&gt;+ returnBook(): void&amp;nbsp;&lt;/p&gt;&lt;p style=&quot;margin:0px;margin-left:4px;&quot;&gt;+getBorrowedBooks():&amp;nbsp;&lt;span style=&quot;background-color: initial;&quot;&gt;List[Book]&lt;/span&gt;&lt;/p&gt;&lt;p style=&quot;margin:0px;margin-left:4px;&quot;&gt;+ getFine(): Fine&amp;nbsp;&lt;/p&gt;" style="verticalAlign=top;align=left;overflow=fill;html=1;whiteSpace=wrap;" vertex="1" parent="1">
          <mxGeometry x="150" y="280" width="180" height="150" as="geometry" />
        </mxCell>
        <mxCell id="TMLp2XeuXttRBRyLWtrB-8" style="edgeStyle=orthogonalEdgeStyle;rounded=0;orthogonalLoop=1;jettySize=auto;html=1;exitX=0.5;exitY=1;exitDx=0;exitDy=0;" edge="1" parent="1" source="TMLp2XeuXttRBRyLWtrB-7" target="TMLp2XeuXttRBRyLWtrB-7">
          <mxGeometry relative="1" as="geometry" />
        </mxCell>
        <mxCell id="TMLp2XeuXttRBRyLWtrB-19" style="edgeStyle=orthogonalEdgeStyle;rounded=0;orthogonalLoop=1;jettySize=auto;html=1;entryX=0.5;entryY=1;entryDx=0;entryDy=0;endArrow=block;endFill=0;endSize=15;" edge="1" parent="1" source="TMLp2XeuXttRBRyLWtrB-9" target="TMLp2XeuXttRBRyLWtrB-7">
          <mxGeometry relative="1" as="geometry" />
        </mxCell>
        <mxCell id="TMLp2XeuXttRBRyLWtrB-9" value="&lt;p style=&quot;margin:0px;margin-top:4px;text-align:center;&quot;&gt;&lt;b&gt;Библиотекарь&lt;/b&gt;&lt;/p&gt;&lt;hr size=&quot;1&quot; style=&quot;border-style:solid;&quot;&gt;&lt;p style=&quot;margin:0px;margin-left:4px;&quot;&gt;- username&lt;/p&gt;&lt;p style=&quot;margin:0px;margin-left:4px;&quot;&gt;- password&lt;/p&gt;&lt;hr size=&quot;1&quot; style=&quot;border-style:solid;&quot;&gt;&lt;p style=&quot;margin:0px;margin-left:4px;&quot;&gt;- login()&lt;/p&gt;&lt;p style=&quot;margin:0px;margin-left:4px;&quot;&gt;- addBook()&lt;/p&gt;&lt;p style=&quot;margin:0px;margin-left:4px;&quot;&gt;- removeBook()&lt;/p&gt;&lt;p style=&quot;margin:0px;margin-left:4px;&quot;&gt;- updateBook()&lt;/p&gt;&lt;p style=&quot;margin:0px;margin-left:4px;&quot;&gt;+ searchBook()&lt;/p&gt;&lt;p style=&quot;margin:0px;margin-left:4px;&quot;&gt;- returnBook(borrower: Borrower, book: Book)&lt;/p&gt;&lt;p style=&quot;margin:0px;margin-left:4px;&quot;&gt;- calcucateFine(&lt;span style=&quot;background-color: initial;&quot;&gt;borrower: Borrower): Fine&lt;/span&gt;&lt;/p&gt;" style="verticalAlign=top;align=left;overflow=fill;html=1;whiteSpace=wrap;" vertex="1" parent="1">
          <mxGeometry x="150" y="480" width="180" height="210" as="geometry" />
        </mxCell>
        <mxCell id="TMLp2XeuXttRBRyLWtrB-20" style="edgeStyle=orthogonalEdgeStyle;rounded=0;orthogonalLoop=1;jettySize=auto;html=1;entryX=0.5;entryY=1;entryDx=0;entryDy=0;endArrow=none;endFill=0;startArrow=classicThin;startFill=1;" edge="1" parent="1" source="TMLp2XeuXttRBRyLWtrB-10" target="TMLp2XeuXttRBRyLWtrB-13">
          <mxGeometry relative="1" as="geometry" />
        </mxCell>
        <mxCell id="TMLp2XeuXttRBRyLWtrB-10" value="&lt;p style=&quot;margin:0px;margin-top:4px;text-align:center;&quot;&gt;&lt;b&gt;Книга&lt;/b&gt;&lt;/p&gt;&lt;hr size=&quot;1&quot; style=&quot;border-style:solid;&quot;&gt;&lt;p style=&quot;margin:0px;margin-left:4px;&quot;&gt;+ id&lt;/p&gt;&lt;p style=&quot;margin:0px;margin-left:4px;&quot;&gt;+ title&lt;/p&gt;&lt;p style=&quot;margin:0px;margin-left:4px;&quot;&gt;+ author&lt;/p&gt;&lt;p style=&quot;margin:0px;margin-left:4px;&quot;&gt;+ genre&lt;/p&gt;&lt;p style=&quot;margin:0px;margin-left:4px;&quot;&gt;+ available: bool&lt;/p&gt;&lt;p style=&quot;margin:0px;margin-left:4px;&quot;&gt;+&amp;nbsp;borrowedDate: Date&lt;/p&gt;&lt;hr size=&quot;1&quot; style=&quot;border-style:solid;&quot;&gt;&lt;p style=&quot;margin:0px;margin-left:4px;&quot;&gt;+ borrow()&lt;/p&gt;&lt;p style=&quot;margin:0px;margin-left:4px;&quot;&gt;+ return()&lt;/p&gt;&lt;p style=&quot;margin:0px;margin-left:4px;&quot;&gt;+ isAvailable()&lt;/p&gt;&lt;p style=&quot;margin:0px;margin-left:4px;&quot;&gt;&lt;br&gt;&lt;/p&gt;" style="verticalAlign=top;align=left;overflow=fill;html=1;whiteSpace=wrap;" vertex="1" parent="1">
          <mxGeometry x="530" y="455" width="180" height="180" as="geometry" />
        </mxCell>
        <mxCell id="TMLp2XeuXttRBRyLWtrB-11" value="&lt;p style=&quot;margin:0px;margin-top:4px;text-align:center;&quot;&gt;&lt;b&gt;Учебник&lt;/b&gt;&lt;/p&gt;&lt;hr size=&quot;1&quot; style=&quot;border-style:solid;&quot;&gt;&lt;p style=&quot;margin:0px;margin-left:4px;&quot;&gt;+ subject&lt;/p&gt;&lt;p style=&quot;margin:0px;margin-left:4px;&quot;&gt;+ grade&lt;/p&gt;&lt;hr size=&quot;1&quot; style=&quot;border-style:solid;&quot;&gt;&lt;p style=&quot;margin:0px;margin-left:4px;&quot;&gt;+ getSubject()&lt;/p&gt;&lt;p style=&quot;margin:0px;margin-left:4px;&quot;&gt;+ getGrade()&lt;/p&gt;" style="verticalAlign=top;align=left;overflow=fill;html=1;whiteSpace=wrap;" vertex="1" parent="1">
          <mxGeometry x="390" y="730" width="180" height="110" as="geometry" />
        </mxCell>
        <mxCell id="TMLp2XeuXttRBRyLWtrB-22" style="edgeStyle=orthogonalEdgeStyle;rounded=0;orthogonalLoop=1;jettySize=auto;html=1;entryX=0.75;entryY=1;entryDx=0;entryDy=0;endArrow=diamondThin;endFill=0;endSize=13;" edge="1" parent="1" source="TMLp2XeuXttRBRyLWtrB-12" target="TMLp2XeuXttRBRyLWtrB-10">
          <mxGeometry relative="1" as="geometry" />
        </mxCell>
        <mxCell id="TMLp2XeuXttRBRyLWtrB-12" value="&lt;p style=&quot;margin:0px;margin-top:4px;text-align:center;&quot;&gt;&lt;b&gt;Худ. книга&lt;/b&gt;&lt;/p&gt;&lt;hr size=&quot;1&quot; style=&quot;border-style:solid;&quot;&gt;&lt;p style=&quot;margin:0px;margin-left:4px;&quot;&gt;+ theme&lt;/p&gt;&lt;hr size=&quot;1&quot; style=&quot;border-style:solid;&quot;&gt;&lt;p style=&quot;margin:0px;margin-left:4px;&quot;&gt;+ getTheme()&lt;/p&gt;" style="verticalAlign=top;align=left;overflow=fill;html=1;whiteSpace=wrap;" vertex="1" parent="1">
          <mxGeometry x="630" y="745" width="180" height="80" as="geometry" />
        </mxCell>
        <mxCell id="TMLp2XeuXttRBRyLWtrB-13" value="&lt;p style=&quot;margin:0px;margin-top:4px;text-align:center;&quot;&gt;&lt;b&gt;Библиотека&lt;/b&gt;&lt;/p&gt;&lt;hr size=&quot;1&quot; style=&quot;border-style:solid;&quot;&gt;&lt;p style=&quot;margin:0px;margin-left:4px;&quot;&gt;+ books: List[Book]&amp;nbsp;&lt;/p&gt;&lt;p style=&quot;margin:0px;margin-left:4px;&quot;&gt;# readers: List[Reader]&amp;nbsp;&lt;/p&gt;&lt;p style=&quot;margin:0px;margin-left:4px;&quot;&gt;# borrowers: List[Borrower] -&amp;nbsp;&lt;/p&gt;&lt;p style=&quot;margin:0px;margin-left:4px;&quot;&gt;- librarians: List[Librarian]&amp;nbsp;&lt;/p&gt;&lt;hr size=&quot;1&quot; style=&quot;border-style:solid;&quot;&gt;&lt;p style=&quot;margin:0px;margin-left:4px;&quot;&gt;# addBook()&lt;/p&gt;&lt;p style=&quot;margin:0px;margin-left:4px;&quot;&gt;# removeBook()&lt;/p&gt;&lt;p style=&quot;margin:0px;margin-left:4px;&quot;&gt;# updateBook()&lt;/p&gt;&lt;p style=&quot;margin:0px;margin-left:4px;&quot;&gt;+ searchBook()&lt;/p&gt;&lt;p style=&quot;margin:0px;margin-left:4px;&quot;&gt;- registerReader()&lt;/p&gt;&lt;p style=&quot;margin:0px;margin-left:4px;&quot;&gt;- manageBorrowers()&lt;/p&gt;&lt;p style=&quot;margin:0px;margin-left:4px;&quot;&gt;&lt;br&gt;&lt;/p&gt;&lt;p style=&quot;margin:0px;margin-left:4px;&quot;&gt;&lt;br&gt;&lt;/p&gt;" style="verticalAlign=top;align=left;overflow=fill;html=1;whiteSpace=wrap;" vertex="1" parent="1">
          <mxGeometry x="530" y="195" width="180" height="190" as="geometry" />
        </mxCell>
        <mxCell id="TMLp2XeuXttRBRyLWtrB-14" style="edgeStyle=orthogonalEdgeStyle;rounded=0;orthogonalLoop=1;jettySize=auto;html=1;exitX=0.5;exitY=1;exitDx=0;exitDy=0;" edge="1" parent="1" source="TMLp2XeuXttRBRyLWtrB-13" target="TMLp2XeuXttRBRyLWtrB-13">
          <mxGeometry relative="1" as="geometry" />
        </mxCell>
        <mxCell id="TMLp2XeuXttRBRyLWtrB-15" value="&lt;p style=&quot;margin:0px;margin-top:4px;text-align:center;&quot;&gt;&lt;b&gt;ВУЗ Библиотека&lt;/b&gt;&lt;/p&gt;&lt;hr size=&quot;1&quot; style=&quot;border-style:solid;&quot;&gt;&lt;p style=&quot;margin: 0px 0px 0px 4px;&quot;&gt;&lt;font face=&quot;Helvetica&quot;&gt;&lt;font style=&quot;font-size: 12px;&quot;&gt;+&lt;/font&gt;&lt;span style=&quot;background-color: rgb(255, 255, 255);&quot;&gt;subjects: List[string]&lt;/span&gt;&lt;/font&gt;&lt;/p&gt;&lt;hr size=&quot;1&quot; style=&quot;border-style: solid;&quot;&gt;&lt;p style=&quot;margin:0px;margin-left:4px;&quot;&gt;+ getBooksBySubject(subject: string): List[Book]&lt;br&gt;&lt;/p&gt;&lt;p style=&quot;margin:0px;margin-left:4px;&quot;&gt;&lt;br&gt;&lt;/p&gt;&lt;p style=&quot;margin:0px;margin-left:4px;&quot;&gt;&lt;br&gt;&lt;/p&gt;" style="verticalAlign=top;align=left;overflow=fill;html=1;whiteSpace=wrap;" vertex="1" parent="1">
          <mxGeometry x="400" y="20" width="180" height="100" as="geometry" />
        </mxCell>
        <mxCell id="TMLp2XeuXttRBRyLWtrB-16" value="&lt;p style=&quot;margin:0px;margin-top:4px;text-align:center;&quot;&gt;&lt;b&gt;Школьная Библиотека&lt;/b&gt;&lt;/p&gt;&lt;hr size=&quot;1&quot; style=&quot;border-style:solid;&quot;&gt;&lt;p style=&quot;margin: 0px 0px 0px 4px;&quot;&gt;&lt;font face=&quot;Helvetica&quot;&gt;&lt;font style=&quot;font-size: 12px;&quot;&gt;+&lt;/font&gt;&lt;/font&gt;&lt;span style=&quot;background-color: initial;&quot;&gt;grades: List[int]&lt;/span&gt;&lt;/p&gt;&lt;hr size=&quot;1&quot; style=&quot;border-style: solid;&quot;&gt;&lt;p style=&quot;margin: 0px 0px 0px 4px;&quot;&gt;&lt;font style=&quot;font-size: 12px;&quot; face=&quot;Helvetica&quot;&gt;+&amp;nbsp;&lt;span style=&quot;background-color: initial;&quot;&gt;&lt;font style=&quot;font-size: 12px;&quot;&gt;getBooksByGrade(grade: int): List[Book]&lt;/font&gt;&lt;/span&gt;&lt;/font&gt;&lt;br&gt;&lt;/p&gt;&lt;p style=&quot;margin:0px;margin-left:4px;&quot;&gt;&lt;br&gt;&lt;/p&gt;&lt;p style=&quot;margin:0px;margin-left:4px;&quot;&gt;&lt;br&gt;&lt;/p&gt;" style="verticalAlign=top;align=left;overflow=fill;html=1;whiteSpace=wrap;" vertex="1" parent="1">
          <mxGeometry x="660" y="20" width="180" height="100" as="geometry" />
        </mxCell>
        <mxCell id="TMLp2XeuXttRBRyLWtrB-21" style="edgeStyle=orthogonalEdgeStyle;rounded=0;orthogonalLoop=1;jettySize=auto;html=1;entryX=0.189;entryY=1.011;entryDx=0;entryDy=0;entryPerimeter=0;endArrow=diamondThin;endFill=0;endSize=13;" edge="1" parent="1" source="TMLp2XeuXttRBRyLWtrB-11" target="TMLp2XeuXttRBRyLWtrB-10">
          <mxGeometry relative="1" as="geometry" />
        </mxCell>
        <mxCell id="TMLp2XeuXttRBRyLWtrB-23" style="edgeStyle=orthogonalEdgeStyle;rounded=0;orthogonalLoop=1;jettySize=auto;html=1;exitX=0.5;exitY=1;exitDx=0;exitDy=0;entryX=0.089;entryY=0.011;entryDx=0;entryDy=0;entryPerimeter=0;endArrow=diamondThin;endFill=0;endSize=12;" edge="1" parent="1" source="TMLp2XeuXttRBRyLWtrB-15" target="TMLp2XeuXttRBRyLWtrB-13">
          <mxGeometry relative="1" as="geometry" />
        </mxCell>
        <mxCell id="TMLp2XeuXttRBRyLWtrB-24" style="edgeStyle=orthogonalEdgeStyle;rounded=0;orthogonalLoop=1;jettySize=auto;html=1;exitX=0.5;exitY=1;exitDx=0;exitDy=0;entryX=0.828;entryY=0.005;entryDx=0;entryDy=0;entryPerimeter=0;endArrow=diamondThin;endFill=0;endSize=12;" edge="1" parent="1" source="TMLp2XeuXttRBRyLWtrB-16" target="TMLp2XeuXttRBRyLWtrB-13">
          <mxGeometry relative="1" as="geometry" />
        </mxCell>
        <mxCell id="TMLp2XeuXttRBRyLWtrB-30" value="1" style="text;strokeColor=none;align=center;fillColor=none;html=1;verticalAlign=middle;whiteSpace=wrap;rounded=0;" vertex="1" parent="1">
          <mxGeometry x="330" y="340" width="30" height="20" as="geometry" />
        </mxCell>
        <mxCell id="TMLp2XeuXttRBRyLWtrB-31" value="&lt;font style=&quot;font-size: 17px;&quot;&gt;*&lt;/font&gt;" style="text;strokeColor=none;align=center;fillColor=none;html=1;verticalAlign=middle;whiteSpace=wrap;rounded=0;fontStyle=1" vertex="1" parent="1">
          <mxGeometry x="490" y="530" width="50" height="20" as="geometry" />
        </mxCell>
        <mxCell id="TMLp2XeuXttRBRyLWtrB-32" value="1" style="text;strokeColor=none;align=center;fillColor=none;html=1;verticalAlign=middle;whiteSpace=wrap;rounded=0;" vertex="1" parent="1">
          <mxGeometry x="620" y="385" width="30" height="20" as="geometry" />
        </mxCell>
        <mxCell id="TMLp2XeuXttRBRyLWtrB-33" value="&lt;font style=&quot;font-size: 17px;&quot;&gt;*&lt;/font&gt;" style="text;strokeColor=none;align=center;fillColor=none;html=1;verticalAlign=middle;whiteSpace=wrap;rounded=0;fontStyle=1" vertex="1" parent="1">
          <mxGeometry x="610" y="435" width="50" height="20" as="geometry" />
        </mxCell>
        <mxCell id="TMLp2XeuXttRBRyLWtrB-35" value="1" style="text;strokeColor=none;align=center;fillColor=none;html=1;verticalAlign=middle;whiteSpace=wrap;rounded=0;" vertex="1" parent="1">
          <mxGeometry x="500" y="210" width="30" height="20" as="geometry" />
        </mxCell>
        <mxCell id="TMLp2XeuXttRBRyLWtrB-36" value="&lt;font style=&quot;font-size: 17px;&quot;&gt;*&lt;/font&gt;" style="text;strokeColor=none;align=center;fillColor=none;html=1;verticalAlign=middle;whiteSpace=wrap;rounded=0;fontStyle=1" vertex="1" parent="1">
          <mxGeometry x="310" y="170" width="50" height="20" as="geometry" />
        </mxCell>
        <mxCell id="TMLp2XeuXttRBRyLWtrB-38" style="edgeStyle=orthogonalEdgeStyle;rounded=0;orthogonalLoop=1;jettySize=auto;html=1;exitX=1;exitY=0.25;exitDx=0;exitDy=0;entryX=0;entryY=0.642;entryDx=0;entryDy=0;entryPerimeter=0;startArrow=classicThin;startFill=1;endArrow=none;endFill=0;" edge="1" parent="1" source="TMLp2XeuXttRBRyLWtrB-7" target="TMLp2XeuXttRBRyLWtrB-13">
          <mxGeometry relative="1" as="geometry" />
        </mxCell>
        <mxCell id="TMLp2XeuXttRBRyLWtrB-39" value="&lt;font style=&quot;font-size: 17px;&quot;&gt;*&lt;/font&gt;" style="text;strokeColor=none;align=center;fillColor=none;html=1;verticalAlign=middle;whiteSpace=wrap;rounded=0;fontStyle=1" vertex="1" parent="1">
          <mxGeometry x="320" y="300" width="50" height="20" as="geometry" />
        </mxCell>
        <mxCell id="TMLp2XeuXttRBRyLWtrB-40" value="1" style="text;strokeColor=none;align=center;fillColor=none;html=1;verticalAlign=middle;whiteSpace=wrap;rounded=0;" vertex="1" parent="1">
          <mxGeometry x="500" y="300" width="30" height="20" as="geometry" />
        </mxCell>
        <mxCell id="TMLp2XeuXttRBRyLWtrB-42" style="edgeStyle=orthogonalEdgeStyle;rounded=0;orthogonalLoop=1;jettySize=auto;html=1;exitX=1;exitY=0.25;exitDx=0;exitDy=0;entryX=-0.006;entryY=0.832;entryDx=0;entryDy=0;entryPerimeter=0;startArrow=classicThin;startFill=1;endArrow=none;endFill=0;" edge="1" parent="1" source="TMLp2XeuXttRBRyLWtrB-9" target="TMLp2XeuXttRBRyLWtrB-13">
          <mxGeometry relative="1" as="geometry">
            <Array as="points">
              <mxPoint x="450" y="533" />
              <mxPoint x="450" y="353" />
            </Array>
          </mxGeometry>
        </mxCell>
      </root>
    </mxGraphModel>
  </diagram>
</mxfile>
